<?xml version="1.0" standalone="no"?>
<!DOCTYPE svg PUBLIC "-//W3C//DTD SVG 20010904//EN"
 "http://www.w3.org/TR/2001/REC-SVG-20010904/DTD/svg10.dtd">
<svg version="1.0" xmlns="http://www.w3.org/2000/svg"
 width="64.000000pt" height="64.000000pt" viewBox="0 0 64.000000 64.000000"
 preserveAspectRatio="xMidYMid meet">

<g transform="translate(0.000000,64.000000) scale(0.100000,-0.100000)"
fill="#000000" stroke="none">
<path d="M29 611 l-29 -29 0 -256 c0 -270 4 -295 47 -315 15 -7 113 -11 279
-11 l256 0 29 29 29 29 0 262 0 262 -29 29 -29 29 -262 0 -262 0 -29 -29z
m399 -103 c3 -36 2 -38 -25 -38 -35 0 -53 -16 -53 -47 0 -20 5 -23 35 -23 34
0 35 -1 35 -40 0 -39 -1 -40 -35 -40 l-35 0 0 -115 0 -115 -45 0 -45 0 0 115
0 115 -26 0 c-23 0 -25 3 -22 38 2 30 7 38 26 40 19 3 22 9 22 45 0 74 39 108
120 104 44 -2 45 -3 48 -39z"/>
</g>
</svg>
