<?xml version="1.0" standalone="no"?>
<!DOCTYPE svg PUBLIC "-//W3C//DTD SVG 20010904//EN"
 "http://www.w3.org/TR/2001/REC-SVG-20010904/DTD/svg10.dtd">
<svg version="1.0" xmlns="http://www.w3.org/2000/svg"
 width="64.000000pt" height="64.000000pt" viewBox="0 0 64.000000 64.000000"
 preserveAspectRatio="xMidYMid meet">

<g transform="translate(0.000000,64.000000) scale(0.100000,-0.100000)"
fill="#000000" stroke="none">
<path d="M29 611 l-29 -29 0 -262 0 -262 29 -29 29 -29 262 0 262 0 29 29 29
29 0 262 0 262 -29 29 -29 29 -262 0 -262 0 -29 -29z m188 -82 c35 -14 159
-14 196 0 41 16 45 14 52 -21 4 -18 13 -52 22 -75 8 -23 13 -56 11 -73 -4 -29
-3 -30 36 -31 37 0 39 -1 16 -10 -14 -6 -32 -8 -42 -6 -9 3 -28 -7 -44 -24
-15 -15 -39 -31 -55 -34 -15 -4 -26 -12 -24 -18 2 -7 6 -41 9 -76 6 -60 5 -63
-14 -58 -11 3 -20 1 -20 -4 0 -4 -7 -6 -15 -3 -10 4 -16 22 -17 58 l-2 51 -3
-52 c-4 -48 -10 -58 -30 -50 -4 1 -6 25 -6 52 l1 50 -7 -49 c-7 -58 -31 -76
-31 -23 0 30 -4 35 -29 40 -17 4 -41 22 -61 47 -37 46 -33 50 18 15 32 -22 72
-33 72 -21 0 2 3 11 6 19 4 10 -5 18 -29 26 -19 6 -44 22 -56 35 -12 13 -30
22 -39 19 -10 -2 -28 0 -42 6 -23 9 -22 10 15 10 l41 1 -4 39 c-2 22 3 51 12
69 9 17 16 47 16 67 0 38 5 41 47 24z"/>
</g>
</svg>
