<?xml version="1.0" standalone="no"?>
<!DOCTYPE svg PUBLIC "-//W3C//DTD SVG 20010904//EN"
 "http://www.w3.org/TR/2001/REC-SVG-20010904/DTD/svg10.dtd">
<svg version="1.0" xmlns="http://www.w3.org/2000/svg"
 width="64.000000pt" height="64.000000pt" viewBox="0 0 64.000000 64.000000"
 preserveAspectRatio="xMidYMid meet">

<g transform="translate(0.000000,64.000000) scale(0.100000,-0.100000)"
fill="#000000" stroke="none">
<path d="M147 482 c-81 -82 -147 -153 -147 -158 0 -17 15 -32 35 -35 18 -4 20
-14 25 -132 4 -99 8 -130 20 -137 8 -6 80 -9 160 -7 l145 2 0 130 0 130 -65 0
-65 0 -3 -78 c-3 -82 -16 -103 -47 -77 -20 17 -20 131 0 169 18 37 31 41 121
41 66 0 78 -3 99 -25 24 -23 25 -29 25 -166 l0 -142 52 6 c28 4 56 11 62 17 6
6 13 67 16 138 5 125 5 126 30 132 52 12 37 38 -116 191 -114 114 -155 149
-174 149 -20 0 -60 -34 -173 -148z"/>
</g>
</svg>
