<?xml version="1.0" standalone="no"?>
<!DOCTYPE svg PUBLIC "-//W3C//DTD SVG 20010904//EN"
 "http://www.w3.org/TR/2001/REC-SVG-20010904/DTD/svg10.dtd">
<svg version="1.0" xmlns="http://www.w3.org/2000/svg"
 width="64.000000pt" height="64.000000pt" viewBox="0 0 64.000000 64.000000"
 preserveAspectRatio="xMidYMid meet">

<g transform="translate(0.000000,64.000000) scale(0.100000,-0.100000)"
fill="#000000" stroke="none">
<path d="M132 563 c-2 -66 -5 -83 -17 -83 -12 0 -15 15 -15 75 0 43 -4 75 -10
75 -6 0 -10 -32 -10 -75 0 -43 -4 -75 -10 -75 -5 0 -10 24 -10 54 0 30 -4 57
-10 61 -17 11 -42 -43 -47 -105 l-6 -60 103 0 c90 0 106 3 133 23 24 16 46 22
87 22 41 0 63 -6 87 -22 27 -20 43 -23 132 -23 l101 0 0 53 c0 65 -25 114 -71
139 -29 16 -59 18 -216 18 l-183 0 0 -80 c0 -63 -3 -80 -15 -80 -11 0 -15 18
-18 83 l-3 82 -2 -82z m432 21 c12 -4 16 -20 16 -54 0 -45 -2 -49 -28 -55 -16
-3 -41 -1 -55 4 -24 9 -27 16 -27 55 0 34 4 46 18 49 27 7 59 8 76 1z"/>
<path d="M262 423 c-40 -20 -62 -59 -62 -112 0 -71 78 -132 150 -116 45 10 90
67 90 116 0 102 -87 157 -178 112z m119 -42 c74 -75 -8 -194 -100 -147 -36 19
-51 44 -51 86 0 43 47 90 90 90 22 0 41 -9 61 -29z"/>
<path d="M2 253 c5 -252 6 -253 320 -253 313 0 318 4 318 258 l0 152 -91 0
c-83 0 -90 -2 -83 -17 4 -10 9 -43 11 -73 3 -42 -1 -63 -17 -88 -60 -97 -199
-104 -268 -14 -23 30 -27 45 -27 96 0 34 4 69 9 79 7 16 0 17 -84 17 l-92 0 4
-157z"/>
</g>
</svg>
