<?xml version="1.0" standalone="no"?>
<!DOCTYPE svg PUBLIC "-//W3C//DTD SVG 20010904//EN"
 "http://www.w3.org/TR/2001/REC-SVG-20010904/DTD/svg10.dtd">
<svg version="1.0" xmlns="http://www.w3.org/2000/svg"
 width="64.000000pt" height="64.000000pt" viewBox="0 0 64.000000 64.000000"
 preserveAspectRatio="xMidYMid meet">

<g transform="translate(0.000000,64.000000) scale(0.100000,-0.100000)"
fill="#000000" stroke="none">
<path d="M29 611 l-29 -29 0 -256 c0 -270 4 -295 47 -315 15 -7 113 -11 279
-11 l256 0 29 29 29 29 0 262 0 262 -29 29 -29 29 -262 0 -262 0 -29 -29z
m165 -97 c19 -18 21 -55 4 -72 -7 -7 -24 -12 -38 -12 -33 0 -50 17 -50 50 0
14 5 31 12 38 17 17 54 15 72 -4z m285 -128 c41 -22 51 -55 51 -171 l0 -105
-45 0 -45 0 0 95 c0 86 -2 95 -21 106 -16 8 -28 8 -45 0 -21 -9 -24 -17 -24
-68 0 -32 -3 -75 -6 -96 -6 -35 -8 -37 -45 -37 l-39 0 0 140 0 140 40 0 c29 0
40 -4 40 -15 0 -12 6 -11 33 5 38 24 68 25 106 6z m-279 -136 l0 -140 -40 0
-40 0 0 140 0 140 40 0 40 0 0 -140z"/>
</g>
</svg>
